<?xml version="1.0" encoding="utf-8"?>
<!-- Generator: Adobe Illustrator 28.2.0, SVG Export Plug-In . SVG Version: 6.00 Build 0)  -->
<svg version="1.1" id="Layer_1" xmlns="http://www.w3.org/2000/svg" xmlns:xlink="http://www.w3.org/1999/xlink" x="0px" y="0px"
	 viewBox="0 0 393.22 384" style="enable-background:new 0 0 393.22 384;" xml:space="preserve">
<style type="text/css">
	.st0{fill:#54001A;}
	.st1{fill:#FF3068;}
</style>
<g>
	<path class="st0" d="M321.55,379.56H71.66c-37.03,0-67.05-30.02-67.05-67.05V71.49c0-37.03,30.02-67.05,67.05-67.05h249.89
		c37.03,0,67.05,30.02,67.05,67.05v241.02C388.61,349.54,358.59,379.56,321.55,379.56z"/>
	<path class="st1" d="M284.11,86.59h-27.79c-2.2,0-3.99,1.78-3.99,3.99v47.11c0,0.65-0.56,1.15-1.21,1.09
		c-39.71-4.04-84.73,23.73-83.28,69c1.53,47.66,41.47,69,87.28,64.07v0c0.04,0,0.08,0,0.1,0c6.51-1.03,14.09-2.8,22.25-5.85
		c2.78-1.04,5.4-2.15,7.85-3.28c1.7-0.79,2.78-2.5,2.78-4.38V90.58C288.1,88.38,286.31,86.59,284.11,86.59z M205.5,206.76
		c-0.79-25.94,24.3-41.67,45.89-38.66c0.54,0.08,0.94,0.55,0.94,1.1v70.33c0,0.57-0.43,1.05-1,1.1
		C227.18,243.03,206.31,233.21,205.5,206.76z"/>
	<path class="st1" d="M141.06,268.75h-30.1c-1.56,0-2.83-1.27-2.83-2.83V103.67c0-1.56,1.27-2.83,2.83-2.83h30.1
		c1.56,0,2.83,1.27,2.83,2.83v162.26C143.89,267.49,142.62,268.75,141.06,268.75z"/>
</g>
</svg>
