<?xml version="1.0" encoding="UTF-8"?>
<svg id="Layer_1" data-name="Layer 1" xmlns="http://www.w3.org/2000/svg" viewBox="0 0 384 375.12">
  <defs>
    <style>
      .cls-1 {
        fill: #300;
      }

      .cls-1, .cls-2 {
        stroke-width: 0px;
      }

      .cls-2 {
        fill: #ff9a00;
      }
    </style>
  </defs>
  <rect class="cls-1" width="384" height="375.12" rx="67.05" ry="67.05"/>
  <g>
    <path class="cls-2" d="M135.14,231.2l-14.63,45.42-31.32.43c6.63-18.67,16.64-47.09,27.47-78.84,16.86-49.43,13.93-43.06,19.22-58.66.4-1.17,1.61-4.72,2.95-9.58,1.74-6.33,2.79-11.53,3.37-14.76.87-4.89,1.36-9.04,1.65-12.07,13.65-.14,27.3-.29,40.95-.43l60.05,173.9h-36.19l-15.01-45.04-58.51-.38ZM186.34,203.03l-11.93-39.2c-3-10-6.9-22.61-9.4-32.61h-1.3c-2.5,10-6.96,22.75-9.71,32.5l-11,39.31h43.35Z"/>
    <path class="cls-2" d="M294.81,117.32c0,10.5-8,19-20.5,19s-20-8.5-19.75-19c-.25-11,7.75-19.25,20-19.25s20,8.25,20.25,19.25ZM258.14,274.69v-123.89c0-1.07.86-1.93,1.93-1.93h28.97c1.07,0,1.93.86,1.93,1.93v123.89c0,1.07-.86,1.93-1.93,1.93h-28.97c-1.07,0-1.93-.86-1.93-1.93Z"/>
  </g>
</svg>