<?xml version="1.0" encoding="UTF-8"?>
<svg id="Layer_1" data-name="Layer 1" xmlns="http://www.w3.org/2000/svg" viewBox="0 0 103.25 58.28">
  <defs>
    <style>
      .cls-1 {
        stroke-width: 0px;
      }
    </style>
  </defs>
  <path class="cls-1" d="M37.63.98h26.74c7.62,2.47,15.51,3.92,23.1,6.57,4.95,1.73,7.93,4.74,9.71,9.57,2.63,7.1,3.59,14.58,5.6,21.81,1.28,4.61,0,8.51-5.01,10.86-4.33,2.02-8.62,4.05-13.26,5.21-17.4,4.35-34.95,3.97-52.49,1.19-11.77-1.87-23.22-4.74-31.03-14.9,0-2.95,0-5.9,0-8.85.65-1.64,1.55-3.22,1.9-4.92C5.33,15.65,12.7,8.44,24.16,5c4.49-1.35,8.98-2.68,13.48-4.01ZM91.36,11.71c1.76,7.74.89,9.45-5.69,12.14-1.67.68-3.41,1.21-5.16,1.65-16.23,4.05-32.7,3.57-49.18,2.41-4.41-.31-8.89-.59-13.1-2.27-3.38-1.34-5.66-3.51-5.04-7.41.53-3.36,4.68-6.4,8.33-6.33-.33,1.76-2.08,1.93-3.16,2.81-1.69,1.38-3.45,2.76-2.97,5.23.47,2.37,2.39,3.31,4.53,4.03,3.72,1.25,7.31,1.24,11.1.02,14.96-4.82,30.16-4.95,45.34-1.3,4.72,1.14,8.27-.65,12-2.62,1.64-.87,2.57-2.73,1.65-4.15-1.74-2.69-3.43-6.08-6.45-7.16-15.25-5.44-30.9-7.66-47.11-4.89C19.1,6.82,6.06,14.32,3.34,33.38c-.25,1.75-.4,2.73,1.23,4.45,5.6,5.93,13.14,7.09,20.23,9.53,1.81.62,4.3.07,5.82,3.17-9.28-1.23-17.27-4.21-25.89-8.71,3.57,4.79,7.73,6.75,12.05,8.24,16.61,5.73,33.78,7.33,51.18,5.7,10.16-.95,20.19-2.87,29.27-8.14,3.6-2.09,4.68-4.61,3.6-8.52-1.4-5.03-2.43-10.16-3.79-15.2-1.1-4.05-2.01-8.23-5.67-12.2ZM35.72,25.66c12.23,1,24.47,1.64,36.56-1.38-12.26-2.19-24.49-3.03-36.56,1.38Z"/>
  <path class="cls-1" d="M98.53,42.48c-1.79,4.19-4.34,5.59-7.02,6.44-18.11,5.73-36.53,6.03-55.11,2.75-.57-.1-1.05-.63-1.56-.94.54-1.88,1.74-1.2,2.82-1.03,16.41,2.66,32.72,2.51,48.96-1.45,3.98-.97,7.31-3.09,11.91-5.77Z"/>
  <path class="cls-1" d="M50.81,41.1c1.5-2.14.09-2.57-1.65-3.22-1.2-.46-2.04-1.71-1.59-3.22.42-1.42,1.5-2.09,2.96-2.12,1.46-.03,2.56.54,3.01,2,.34,1.12-.43,3.2,2.23,2.03,2.76-1.22-.12-1.88-.21-2.78-.13-1.18-.42-2.28.68-3.11,1.07-.82,2.24-.6,3.19.13,1.33,1.02,2.69,2.39,1.67,4.12-.81,1.38-1.62,1.99.38,3.15,2.67,1.55,3.95,4.21,2.26,7.09-1.85,3.15-4.91,4.16-8.51,3.15-3.72-1.04-4.5-3.85-4.42-7.22ZM57.73,46.41c1.95-.29,4.61-.58,4.49-3.56-.12-2.92-2.63-4.04-5.21-4.08-2.07-.03-3.78.97-3.8,3.51-.03,2.84,1.37,4.17,4.53,4.14Z"/>
  <path class="cls-1" d="M50.73,46.5c-.34,2.02-1.76,2.58-3.55,2.61-1.55.02-2.57-.7-2.5-2.3.07-1.69.99-2.72,2.83-2.59,1.54.1,2.96.41,3.22,2.29Z"/>
  <path class="cls-1" d="M46.23,38.54c1.45.23,2.97.74,3.08,2.45.09,1.47-1.09,2.29-2.56,2.37-1.64.09-2.95-.5-3.05-2.35-.08-1.58.99-2.26,2.52-2.47Z"/>
</svg>