<svg width="28" height="29" viewBox="0 0 28 29" fill="none" xmlns="http://www.w3.org/2000/svg">
<ellipse cx="13.5172" cy="14.2382" rx="13.5172" ry="14.2382" fill="#174C62"/>
<path d="M13.6951 9.60986C11.0341 9.60986 8.88649 11.7575 8.88649 14.4186C8.88649 17.0797 11.0341 19.2273 13.6951 19.2273C16.3562 19.2273 18.5037 17.0797 18.5037 14.4186C18.5037 11.7575 16.3562 9.60986 13.6951 9.60986ZM13.6951 17.5439C11.9742 17.5439 10.5699 16.1395 10.5699 14.4186C10.5699 12.6977 11.9742 11.2933 13.6951 11.2933C15.416 11.2933 16.8204 12.6977 16.8204 14.4186C16.8204 16.1395 15.416 17.5439 13.6951 17.5439ZM18.7007 8.29221C18.0794 8.29221 17.5777 8.79395 17.5777 9.41526C17.5777 10.0366 18.0794 10.5383 18.7007 10.5383C19.322 10.5383 19.8237 10.0389 19.8237 9.41526C19.8239 9.26773 19.795 9.12161 19.7386 8.98527C19.6822 8.84894 19.5995 8.72506 19.4952 8.62074C19.3909 8.51641 19.267 8.4337 19.1307 8.37733C18.9943 8.32095 18.8482 8.29203 18.7007 8.29221ZM23.0685 14.4186C23.0685 13.1244 23.0803 11.8419 23.0076 10.55C22.9349 9.04951 22.5926 7.71779 21.4954 6.62054C20.3958 5.52093 19.0664 5.18097 17.5659 5.10829C16.2718 5.03561 14.9893 5.04733 13.6975 5.04733C12.4033 5.04733 11.1208 5.03561 9.82899 5.10829C8.32849 5.18097 6.9968 5.52328 5.89956 6.62054C4.79998 7.72014 4.46002 9.04951 4.38734 10.55C4.31466 11.8442 4.32638 13.1267 4.32638 14.4186C4.32638 15.7104 4.31466 16.9953 4.38734 18.2871C4.46002 19.7876 4.80232 21.1194 5.89956 22.2166C6.99914 23.3162 8.32849 23.6562 9.82899 23.7289C11.1232 23.8016 12.4056 23.7898 13.6975 23.7898C14.9916 23.7898 16.2741 23.8016 17.5659 23.7289C19.0664 23.6562 20.3981 23.3139 21.4954 22.2166C22.5949 21.117 22.9349 19.7876 23.0076 18.2871C23.0826 16.9953 23.0685 15.7128 23.0685 14.4186ZM21.0054 19.9471C20.8342 20.3738 20.6279 20.6927 20.2973 21.0209C19.9667 21.3515 19.6502 21.5578 19.2235 21.729C17.9903 22.219 15.062 22.1088 13.6951 22.1088C12.3283 22.1088 9.39759 22.219 8.16437 21.7313C7.73767 21.5601 7.41881 21.3538 7.09058 21.0232C6.76 20.6927 6.55368 20.3761 6.38253 19.9494C5.89487 18.7138 6.00506 15.7855 6.00506 14.4186C6.00506 13.0517 5.89487 10.121 6.38253 8.88774C6.55368 8.46102 6.76 8.14216 7.09058 7.81392C7.42116 7.48568 7.73767 7.27702 8.16437 7.10586C9.39759 6.61819 12.3283 6.72839 13.6951 6.72839C15.062 6.72839 17.9926 6.61819 19.2259 7.10586C19.6526 7.27702 19.9714 7.48334 20.2997 7.81392C20.6302 8.14451 20.8365 8.46102 21.0077 8.88774C21.4954 10.121 21.3852 13.0517 21.3852 14.4186C21.3852 15.7855 21.4954 18.7138 21.0054 19.9471Z" fill="white"/>
</svg>
