<svg width="52" height="43" viewBox="0 0 52 43" fill="none" xmlns="http://www.w3.org/2000/svg">
<path opacity="0.35" d="M13.7555 22.8C16.0221 22.8 17.8221 23.6 19.1555 25.2C20.4888 26.6667 21.1555 28.7333 21.1555 31.4C21.1555 34.2 20.0888 36.8 17.9555 39.2C15.9555 41.6 13.4888 42.8 10.5555 42.8C7.35547 42.8 4.82214 41.7333 2.95547 39.6C1.22214 37.4667 0.355469 34.4 0.355469 30.4C0.355469 24.2667 1.55547 18.8667 3.95547 14.2C6.35547 9.39999 10.0221 4.86666 14.9555 0.59999L19.3555 4.99999C16.0221 8.06666 13.4888 11.1333 11.7555 14.2C10.1555 17.2667 9.2888 20.5333 9.15547 24C10.2221 23.2 11.7555 22.8 13.7555 22.8ZM44.1555 22.8C46.4221 22.8 48.2221 23.6 49.5555 25.2C50.8888 26.6667 51.5555 28.7333 51.5555 31.4C51.5555 34.2 50.4888 36.8 48.3555 39.2C46.3555 41.6 43.8888 42.8 40.9555 42.8C37.7555 42.8 35.2221 41.7333 33.3555 39.6C31.6221 37.4667 30.7555 34.4 30.7555 30.4C30.7555 24.2667 31.9555 18.8667 34.3555 14.2C36.7555 9.39999 40.4221 4.86666 45.3555 0.59999L49.7555 4.99999C46.4221 8.06666 43.8888 11.1333 42.1555 14.2C40.5555 17.2667 39.6888 20.5333 39.5555 24C40.6221 23.2 42.1555 22.8 44.1555 22.8Z" fill="#82A53A"/>
</svg>
