<svg width="28" height="30" viewBox="0 0 28 30" fill="none" xmlns="http://www.w3.org/2000/svg">
<ellipse cx="13.8429" cy="14.9042" rx="13.5172" ry="14.2382" fill="#174C62"/>
<path fill-rule="evenodd" clip-rule="evenodd" d="M9.63784 5.71265C10.1955 5.71265 10.7303 5.93207 11.1247 6.32264C11.519 6.71322 11.7405 7.24295 11.7405 7.7953V10.9193H18.0486C18.6062 10.9193 19.1411 11.1387 19.5354 11.5293C19.9297 11.9199 20.1512 12.4496 20.1512 13.0019C20.1512 13.5543 19.9297 14.084 19.5354 14.4746C19.1411 14.8652 18.6062 15.0846 18.0486 15.0846H11.7405V17.1673C11.7405 17.9958 12.0728 18.7904 12.6643 19.3762C13.2558 19.9621 14.058 20.2912 14.8945 20.2912H18.0486C18.6062 20.2912 19.1411 20.5107 19.5354 20.9012C19.9297 21.2918 20.1512 21.8215 20.1512 22.3739C20.1512 22.9262 19.9297 23.456 19.5354 23.8465C19.1411 24.2371 18.6062 24.4565 18.0486 24.4565H14.8945C12.9427 24.4565 11.0708 23.6886 9.69067 22.3216C8.31052 20.9546 7.53516 19.1005 7.53516 17.1673V7.7953C7.53516 7.24295 7.75669 6.71322 8.15102 6.32264C8.54535 5.93207 9.08017 5.71265 9.63784 5.71265Z" fill="white"/>
</svg>
