<svg width="25" height="26" viewBox="0 0 25 26" fill="none" xmlns="http://www.w3.org/2000/svg">
<ellipse cx="12.8602" cy="12.6336" rx="11.9939" ry="12.6336" fill="#69848F"/>
<path fill-rule="evenodd" clip-rule="evenodd" d="M9.12842 4.47772C9.62324 4.47772 10.0978 4.67242 10.4477 5.01898C10.7976 5.36553 10.9941 5.83557 10.9941 6.32568V9.09761H16.5913C17.0861 9.09761 17.5607 9.29231 17.9106 9.63886C18.2605 9.98542 18.457 10.4555 18.457 10.9456C18.457 11.4357 18.2605 11.9057 17.9106 12.2523C17.5607 12.5988 17.0861 12.7935 16.5913 12.7935H10.9941V14.6415C10.9941 15.3766 11.289 16.0817 11.8138 16.6015C12.3387 17.1214 13.0505 17.4134 13.7927 17.4134H16.5913C17.0861 17.4134 17.5607 17.6081 17.9106 17.9547C18.2605 18.3012 18.457 18.7713 18.457 19.2614C18.457 19.7515 18.2605 20.2215 17.9106 20.5681C17.5607 20.9146 17.0861 21.1093 16.5913 21.1093H13.7927C12.0609 21.1093 10.3999 20.4279 9.1753 19.2149C7.95068 18.002 7.2627 16.3569 7.2627 14.6415V6.32568C7.2627 5.83557 7.45926 5.36553 7.80915 5.01898C8.15904 4.67242 8.6336 4.47772 9.12842 4.47772Z" fill="white"/>
</svg>
