<svg width="24" height="26" viewBox="0 0 24 26" fill="none" xmlns="http://www.w3.org/2000/svg">
<ellipse cx="11.9939" cy="12.6336" rx="11.9939" ry="12.6336" fill="#69848F"/>
<path d="M12.1515 8.52671C9.79029 8.52671 7.88472 10.4323 7.88472 12.7935C7.88472 15.1547 9.79029 17.0603 12.1515 17.0603C14.5126 17.0603 16.4182 15.1547 16.4182 12.7935C16.4182 10.4323 14.5126 8.52671 12.1515 8.52671ZM12.1515 15.5666C10.6245 15.5666 9.37839 14.3205 9.37839 12.7935C9.37839 11.2665 10.6245 10.0204 12.1515 10.0204C13.6784 10.0204 14.9245 11.2665 14.9245 12.7935C14.9245 14.3205 13.6784 15.5666 12.1515 15.5666ZM16.5929 7.35755C16.0416 7.35755 15.5965 7.80275 15.5965 8.35404C15.5965 8.90534 16.0416 9.35053 16.5929 9.35053C17.1442 9.35053 17.5894 8.90742 17.5894 8.35404C17.5896 8.22314 17.5639 8.09348 17.5139 7.97251C17.4639 7.85153 17.3905 7.74162 17.2979 7.64905C17.2053 7.55649 17.0954 7.48309 16.9745 7.43307C16.8535 7.38305 16.7238 7.35739 16.5929 7.35755ZM20.4686 12.7935C20.4686 11.6452 20.479 10.5072 20.4145 9.36093C20.35 8.02951 20.0463 6.84787 19.0727 5.87426C18.097 4.89857 16.9175 4.59692 15.5861 4.53243C14.4377 4.46794 13.2998 4.47834 12.1535 4.47834C11.0052 4.47834 9.86727 4.46794 8.72101 4.53243C7.38961 4.59692 6.20799 4.90065 5.2344 5.87426C4.25873 6.84995 3.95709 8.02951 3.8926 9.36093C3.82811 10.5093 3.83851 11.6472 3.83851 12.7935C3.83851 13.9398 3.82811 15.0798 3.8926 16.2261C3.95709 17.5575 4.26081 18.7392 5.2344 19.7128C6.21007 20.6885 7.38961 20.9901 8.72101 21.0546C9.86935 21.1191 11.0073 21.1087 12.1535 21.1087C13.3019 21.1087 14.4398 21.1191 15.5861 21.0546C16.9175 20.9901 18.0991 20.6864 19.0727 19.7128C20.0483 18.7371 20.35 17.5575 20.4145 16.2261C20.481 15.0798 20.4686 13.9419 20.4686 12.7935ZM18.6379 17.699C18.486 18.0776 18.3029 18.3606 18.0096 18.6518C17.7163 18.9451 17.4355 19.1282 17.0568 19.2801C15.9626 19.7149 13.3643 19.6171 12.1515 19.6171C10.9386 19.6171 8.33823 19.7149 7.24399 19.2821C6.86537 19.1303 6.58245 18.9472 6.2912 18.6539C5.99788 18.3606 5.81481 18.0797 5.66295 17.7011C5.23024 16.6047 5.32802 14.0064 5.32802 12.7935C5.32802 11.5807 5.23024 8.98023 5.66295 7.88596C5.81481 7.50734 5.99788 7.22441 6.2912 6.93316C6.58453 6.64191 6.86537 6.45676 7.24399 6.30489C8.33823 5.87218 10.9386 5.96996 12.1515 5.96996C13.3643 5.96996 15.9647 5.87218 17.0589 6.30489C17.4375 6.45676 17.7205 6.63983 18.0117 6.93316C18.305 7.22649 18.4881 7.50734 18.64 7.88596C19.0727 8.98023 18.9749 11.5807 18.9749 12.7935C18.9749 14.0064 19.0727 16.6047 18.6379 17.699Z" fill="white"/>
</svg>
